<?xml version="1.0" encoding="UTF-8" standalone="no"?>
<!DOCTYPE svg PUBLIC "-//W3C//DTD SVG 1.1//EN" "http://www.w3.org/Graphics/SVG/1.1/DTD/svg11.dtd">
<svg width="100%" height="100%" viewBox="0 0 2363 559" version="1.1" xmlns="http://www.w3.org/2000/svg" xmlns:xlink="http://www.w3.org/1999/xlink" xml:space="preserve" xmlns:serif="http://www.serif.com/" style="fill-rule:evenodd;clip-rule:evenodd;stroke-linejoin:round;stroke-miterlimit:1.41421;">
    <g transform="matrix(4.16667,0,0,4.16667,0,0)">
        <path d="M546.433,77.899C548.616,80.082 551.475,81.173 554.335,81.173C557.195,81.173 560.054,80.082 562.237,77.899C564.42,75.716 565.512,72.856 565.512,69.996C565.512,67.137 564.42,64.277 562.237,62.094C560.054,59.911 557.195,58.82 554.335,58.82C551.475,58.82 548.616,59.911 546.433,62.094C544.25,64.277 543.158,67.137 543.158,69.996C543.158,72.856 544.25,75.716 546.433,77.899Z" style="fill:rgb(243,112,33);fill-rule:nonzero;"/>
        <path d="M527.688,96.644C529.365,98.322 531.565,99.161 533.766,99.161C535.966,99.161 538.167,98.322 539.847,96.644C541.525,94.966 542.365,92.767 542.364,90.567C542.363,88.367 541.523,86.167 539.843,84.489C538.164,82.809 535.965,81.969 533.765,81.968C531.565,81.967 529.365,82.806 527.688,84.484C526.009,86.165 525.17,88.366 525.17,90.566C525.17,92.767 526.009,94.966 527.688,96.644Z" style="fill:rgb(243,112,33);fill-rule:nonzero;"/>
        <path d="M527.71,55.527C529.388,57.205 531.587,58.044 533.788,58.044C535.988,58.044 538.189,57.205 539.87,55.527C541.548,53.849 542.387,51.649 542.386,49.449C542.385,47.25 541.545,45.05 539.865,43.372C538.187,41.691 535.987,40.851 533.787,40.851C531.587,40.85 529.388,41.689 527.71,43.367C526.031,45.047 525.192,47.248 525.192,49.449C525.192,51.649 526.031,53.849 527.71,55.527Z" style="fill:rgb(243,112,33);fill-rule:nonzero;"/>
        <path d="M508.52,115.811C509.811,117.102 511.503,117.748 513.195,117.748C514.888,117.748 516.581,117.102 517.872,115.811C519.163,114.52 519.807,112.828 519.807,111.135C519.807,109.443 519.163,107.75 517.872,106.459C516.581,105.168 514.888,104.523 513.195,104.523C511.503,104.523 509.811,105.168 508.52,106.459C507.229,107.75 506.583,109.443 506.583,111.135C506.583,112.828 507.229,114.52 508.52,115.811Z" style="fill:rgb(243,112,33);fill-rule:nonzero;"/>
        <path d="M508.543,74.694C509.834,75.985 511.526,76.63 513.219,76.63C514.911,76.63 516.604,75.985 517.895,74.694C519.185,73.403 519.831,71.71 519.831,70.018C519.831,68.325 519.185,66.633 517.895,65.342C516.604,64.051 514.911,63.405 513.219,63.405C511.526,63.405 509.834,64.051 508.543,65.342C507.252,66.633 506.606,68.325 506.606,70.018C506.606,71.71 507.252,73.403 508.543,74.694Z" style="fill:rgb(243,112,33);fill-rule:nonzero;"/>
        <path d="M508.566,33.578C509.857,34.869 511.55,35.514 513.242,35.514C514.935,35.514 516.627,34.869 517.918,33.578C519.209,32.287 519.854,30.594 519.854,28.902C519.854,27.209 519.209,25.517 517.918,24.226C516.627,22.935 514.935,22.289 513.242,22.289C511.55,22.289 509.857,22.935 508.566,24.226C507.275,25.517 506.63,27.209 506.63,28.902C506.63,30.594 507.275,32.287 508.566,33.578Z" style="fill:rgb(243,112,33);fill-rule:nonzero;"/>
        <path d="M489.052,94.185C490.044,95.178 491.346,95.675 492.648,95.675C493.95,95.675 495.252,95.178 496.245,94.185C497.237,93.193 497.734,91.891 497.734,90.589C497.734,89.287 497.237,87.985 496.245,86.992C495.252,85.999 493.95,85.503 492.648,85.503C491.346,85.503 490.044,85.999 489.052,86.992C488.059,87.985 487.562,89.287 487.562,90.589C487.562,91.891 488.059,93.193 489.052,94.185Z" style="fill:rgb(243,112,33);fill-rule:nonzero;"/>
        <path d="M489.075,53.069C490.067,54.062 491.369,54.558 492.671,54.558C493.973,54.558 495.275,54.062 496.268,53.069C497.261,52.076 497.757,50.774 497.757,49.472C497.757,48.171 497.261,46.869 496.268,45.876C495.275,44.883 493.973,44.387 492.671,44.387C491.369,44.387 490.067,44.883 489.075,45.876C488.082,46.869 487.585,48.171 487.585,49.472C487.585,50.774 488.082,52.076 489.075,53.069Z" style="fill:rgb(243,112,33);fill-rule:nonzero;"/>
        <path d="M469.335,72.809C470.099,73.573 471.101,73.955 472.102,73.955C473.103,73.955 474.105,73.573 474.869,72.809C475.634,72.044 476.016,71.043 476.016,70.041C476.016,69.04 475.634,68.039 474.869,67.274C474.105,66.51 473.103,66.128 472.102,66.128C471.101,66.128 470.099,66.51 469.335,67.274C468.57,68.039 468.188,69.04 468.188,70.041C468.188,71.043 468.57,72.044 469.335,72.809Z" style="fill:rgb(243,112,33);fill-rule:nonzero;"/>
        <path d="M348.303,100.446C348.303,92.445 342.826,88.146 334.32,88.146C320.506,88.146 313.347,99.436 313.347,111.817C313.347,124.453 319.073,133.382 333.392,133.382C341.903,133.382 347.798,129.506 348.807,128.665L345.437,120.832C343.081,122.428 339.46,124.453 334.912,124.453C328.507,124.453 325.81,120.154 325.223,116.115C335.417,115.692 348.303,113.163 348.303,100.446ZM338.027,100.532C338.027,106.34 330.19,107.691 324.718,107.86C324.968,102.046 328.002,96.402 333.729,96.402C336.34,96.402 338.027,98.003 338.027,100.532Z" style="fill:rgb(243,112,33);fill-rule:nonzero;"/>
        <path d="M389.156,100.446C389.156,92.445 383.679,88.146 375.173,88.146C361.359,88.146 354.2,99.436 354.2,111.817C354.2,124.453 359.926,133.382 374.245,133.382C382.756,133.382 388.651,129.506 389.66,128.665L386.29,120.832C383.934,122.428 380.313,124.453 375.765,124.453C369.36,124.453 366.668,120.154 366.076,116.115C376.27,115.692 389.156,113.163 389.156,100.446ZM378.88,100.532C378.88,106.34 371.043,107.691 365.571,107.86C365.821,102.046 368.855,96.402 374.582,96.402C377.193,96.402 378.88,98.003 378.88,100.532Z" style="fill:rgb(243,112,33);fill-rule:nonzero;"/>
        <path d="M85.245,100.446C85.245,92.445 79.768,88.146 71.263,88.146C57.449,88.146 50.289,99.436 50.289,111.817C50.289,124.453 56.016,133.382 70.335,133.382C78.845,133.382 84.74,129.506 85.75,128.665L82.379,120.832C80.023,122.428 76.403,124.453 71.854,124.453C65.449,124.453 62.752,120.154 62.165,116.115C72.359,115.692 85.245,113.163 85.245,100.446ZM74.97,100.532C74.97,106.34 67.132,107.691 61.661,107.86C61.911,102.046 64.945,96.402 70.671,96.402C73.282,96.402 74.97,98.003 74.97,100.532Z" style="fill:rgb(243,112,33);fill-rule:nonzero;"/>
        <path d="M29.229,76.103L29.229,98.423L12.044,98.423L12.044,76.103L0,76.103L0,132.118L12.044,132.118L12.044,108.952L29.229,108.952L29.229,132.118L41.278,132.118L41.278,76.103L29.229,76.103Z" style="fill:rgb(243,112,33);fill-rule:nonzero;"/>
        <path d="M130.647,132.117L129.804,123.612L129.804,91.263C123.401,88.907 117.169,88.147 114.304,88.147C99.398,88.147 91.984,97.835 91.984,112.659C91.984,124.03 96.109,133.295 108.322,133.295C112.876,133.295 117.083,131.613 119.612,127.737L120.035,127.824L120.622,132.117L130.647,132.117ZM118.179,118.472C118.179,121.587 115.655,124.79 111.275,124.79C105.038,124.79 103.605,118.808 103.605,111.985C103.605,103.73 105.966,96.826 112.876,96.826C115.063,96.826 117.083,97.244 118.179,97.749L118.179,118.472Z" style="fill:rgb(243,112,33);fill-rule:nonzero;"/>
        <path d="M140.418,76.186L140.418,119.397C140.418,126.475 141.091,133.38 153.222,133.38C156.929,133.38 161.391,132.288 163.92,130.687L161.391,122.85C159.54,123.609 157.77,124.201 156.256,124.201C153.135,124.201 152.126,122.345 152.126,117.714L152.126,76.186L140.418,76.186Z" style="fill:rgb(243,112,33);fill-rule:nonzero;"/>
        <path d="M213.447,132.117L213.447,104.571C213.447,100.614 216.312,97.162 220.606,97.162C225.073,97.162 225.996,100.528 225.996,104.908L225.996,132.117L237.704,132.117L237.704,103.143C237.704,93.118 232.905,88.147 224.058,88.147C219.933,88.147 216.144,89.661 213.447,92.527L213.447,76.102L201.739,76.102L201.739,132.117L213.447,132.117Z" style="fill:rgb(243,112,33);fill-rule:nonzero;"/>
        <path d="M248.063,132.118L259.771,132.118C259.771,118.105 259.771,110.765 259.771,110.765C259.771,110.765 259.771,101.855 259.771,89.412C255.667,89.412 253.917,89.412 253.917,89.412C253.917,89.412 252.167,89.412 248.063,89.412L248.063,132.118Z" style="fill:rgb(243,112,33);fill-rule:nonzero;"/>
        <path d="M247.525,76.066C247.525,77.84 248.144,79.346 249.248,80.409C250.352,81.471 251.941,82.09 253.881,82.09C255.778,82.09 257.387,81.471 258.521,80.409C259.655,79.346 260.315,77.84 260.315,76.066C260.315,74.414 259.655,72.908 258.521,71.815C257.387,70.721 255.778,70.041 253.881,70.041C251.982,70.041 250.393,70.721 249.279,71.815C248.164,72.908 247.525,74.414 247.525,76.066Z" style="fill:rgb(243,112,33);fill-rule:nonzero;"/>
        <path d="M281.843,132.117L281.843,104.739C281.843,100.696 284.709,97.162 289.171,97.162C293.638,97.162 294.392,100.614 294.392,105.244L294.392,132.117L306.1,132.117L306.1,102.97C306.1,92.864 301.047,88.147 292.71,88.147C287.065,88.147 282.853,90.508 279.992,94.465L279.146,89.411L269.375,89.411L270.135,97.331L270.135,132.117L281.843,132.117Z" style="fill:rgb(243,112,33);fill-rule:nonzero;"/>
        <path d="M409.961,105.583C410.129,101.121 412.826,98.256 417.038,98.256C419.226,98.256 421.25,98.843 423.015,99.771L425.121,89.664C423.102,88.568 420.491,88.149 418.13,88.149C414.173,88.149 410.047,90.505 408.023,95.477L406.927,89.409L397.411,89.409L398.253,96.823L398.253,132.115L409.961,132.115L409.961,105.583Z" style="fill:rgb(243,112,33);fill-rule:nonzero;"/>
        <path d="M457.407,91.859L457.44,91.758C453.709,89.32 448.824,87.849 443.492,88.128C434.837,88.58 428.033,93.739 428.505,102.653C428.971,111.577 435.477,113.683 441.876,115.202C445.55,116.106 448.622,116.794 448.795,120.073C448.964,123.275 446.757,124.655 443.646,124.819C439.838,125.016 435.025,123.323 431.918,121.727L428.428,129.757C430.885,131.401 437.222,133.747 444.684,133.358C454.43,132.848 460.811,127.713 460.316,118.202C459.854,109.451 452.853,107.538 446.617,105.922C442.771,104.946 439.939,103.994 439.765,100.715C439.621,97.936 441.833,96.725 444.612,96.576C447.487,96.427 450.584,97.686 453.873,99.989L457.407,91.859Z" style="fill:rgb(243,112,33);fill-rule:nonzero;"/>
        <path d="M181.018,98.593L192.052,98.593L192.052,89.409L181.018,89.409L181.018,76.1L169.31,76.1L169.31,89.414L162.814,89.414L162.814,98.597L169.31,98.597L169.31,119.397C169.31,126.475 169.983,133.38 182.114,133.38C185.821,133.38 190.283,132.288 192.812,130.687L190.283,122.85C188.432,123.609 186.663,124.201 185.143,124.201C182.027,124.201 181.018,122.345 181.018,117.714L181.018,98.593Z" style="fill:rgb(243,112,33);fill-rule:nonzero;"/>
    </g>
</svg>
